# xmcd
#
# Track frame offsets:
#	182
#	26945
#	43162
#	66282
#	84265
#	100132
#	117622
#	136302
#	156100
#	172697
#	192435
#	218417
#	236105
#	252347
#	270170
#	291612
#
# Disc length: 4158 seconds
#
# Revision: 1
# Processed by: cddbd v1.5.2PL0 Copyright (c) Steve Scherf et al.
# Submitted via: audiograbber 1.83.01
#
DISCID=e7103c10
DTITLE=Various Artist - Dreamlover
DYEAR=1994
DGENRE=Ballad
TTITLE0=Bryan Adams - Please Forgive Me
TTITLE1=Mariah Carey - Without You
TTITLE2=Michael Bolton - Said I Love You ... But I Lied
TTITLE3=Roxette - Almoust Unreal
TTITLE4=UB40 - Can't Help Fall In Love
TTITLE5=Janet Jackson - Again
TTITLE6=Peabo Bryson and Regina Bell - A Whole New World
TTITLE7=Mariah Carey - Hero
TTITLE8=Sting - Fields Of Gold
TTITLE9=Celine Dion and C. Griffin - When I Falling In Love
TTITLE10=Phil Collins - Everyday
TTITLE11=Rod Stewart - Reason To Believe
TTITLE12=Richard Marx - Now and Forever
TTITLE13=Mariah Carey - Dreamlover
TTITLE14=Bryan Adams, Rod Stewart and Sting - All For Love
TTITLE15=Whitney Houston - I Will Always Love You
EXTD=
EXTT0=
EXTT1=
EXTT2=
EXTT3=
EXTT4=
EXTT5=
EXTT6=
EXTT7=
EXTT8=
EXTT9=
EXTT10=
EXTT11=
EXTT12=
EXTT13=
EXTT14=
EXTT15=
PLAYORDER=
